<svg width="39" height="34" viewBox="0 0 39 34" fill="none" xmlns="http://www.w3.org/2000/svg">
<path d="M27.625 11.3332V7.08317C27.625 6.70745 27.4538 6.34711 27.149 6.08144C26.8443 5.81576 26.431 5.6665 26 5.6665H9.75C8.88805 5.6665 8.0614 5.96501 7.4519 6.49637C6.84241 7.02772 6.5 7.74839 6.5 8.49984M6.5 8.49984C6.5 9.25128 6.84241 9.97195 7.4519 10.5033C8.0614 11.0347 8.88805 11.3332 9.75 11.3332H29.25C29.681 11.3332 30.0943 11.4824 30.399 11.7481C30.7038 12.0138 30.875 12.3741 30.875 12.7498V16.9998M6.5 8.49984V25.4998C6.5 26.2513 6.84241 26.972 7.4519 27.5033C8.0614 28.0347 8.88805 28.3332 9.75 28.3332H29.25C29.681 28.3332 30.0943 28.1839 30.399 27.9182C30.7038 27.6526 30.875 27.2922 30.875 26.9165V22.6665" stroke="#1C73E5" stroke-width="2" stroke-linecap="round" stroke-linejoin="round"/>
<path d="M32.5 17V22.6667H26C25.138 22.6667 24.3114 22.3682 23.7019 21.8368C23.0924 21.3054 22.75 20.5848 22.75 19.8333C22.75 19.0819 23.0924 18.3612 23.7019 17.8299C24.3114 17.2985 25.138 17 26 17H32.5Z" stroke="#1C73E5" stroke-width="2" stroke-linecap="round" stroke-linejoin="round"/>
</svg>
