<svg width="39" height="38" viewBox="0 0 39 38" fill="none" xmlns="http://www.w3.org/2000/svg">
<path d="M23.3187 13.5373C22.9937 12.7456 22.5132 12.1255 21.8773 11.6769C21.2414 11.2282 20.476 11.0039 19.5812 11.0039C19.0937 11.0039 18.6197 11.0699 18.1593 11.2019C17.6989 11.3338 17.2791 11.5845 16.8999 11.9539L14.5437 9.65811C14.9228 9.28866 15.4374 8.95194 16.0874 8.64794C16.7374 8.34394 17.3332 8.15288 17.8749 8.07477V4.74977H21.1249V7.99561C22.3437 8.23311 23.4134 8.71497 24.3343 9.44119C25.2551 10.1674 25.9457 11.1105 26.4062 12.2706L23.3187 13.5373ZM32.1749 35.7831L24.6999 28.4998C24.2937 28.8956 23.7384 29.2191 23.0343 29.4704C22.3301 29.7216 21.6937 29.8731 21.1249 29.9248V33.2498H17.8749V29.8456C16.3582 29.4762 15.0924 28.8032 14.0773 27.8269C13.0622 26.8505 12.3239 25.6234 11.8624 24.1456L15.1124 22.8789C15.4374 23.9873 15.9861 24.9373 16.7585 25.7289C17.5309 26.5206 18.5531 26.9164 19.8249 26.9164C20.3124 26.9164 20.7593 26.8573 21.1655 26.7391C21.5718 26.6209 21.9645 26.4425 22.3437 26.2039L2.2749 6.64977L4.5499 4.43311L34.4499 33.5664L32.1749 35.7831Z" fill="#1C73E5"/>
</svg>
