<svg width="40" height="29" viewBox="0 0 40 29" fill="none" xmlns="http://www.w3.org/2000/svg">
<path d="M33.62 8.15622H30.5183L22.9083 13.6711C23.1704 14.1553 23.1945 14.6903 22.9766 15.1859C22.7586 15.6816 22.3119 16.1077 21.7115 16.3927C21.1112 16.6776 20.3938 16.804 19.6801 16.7506C18.9663 16.6972 18.2996 16.4672 17.7922 16.0994C17.2849 15.7315 16.9676 15.2482 16.894 14.7307C16.8203 14.2132 16.9946 13.6931 17.3876 13.2579C17.7807 12.8226 18.3685 12.4987 19.0521 12.3407C19.7358 12.1827 20.4736 12.2002 21.1416 12.3902L28.75 6.87418V4.62547C28.7501 4.32457 28.915 4.03601 29.2083 3.82314L32.0916 1.73272C32.145 1.69378 32.212 1.66612 32.2854 1.65271C32.3588 1.6393 32.4359 1.64064 32.5083 1.65659C32.6566 1.68801 32.7666 1.77743 32.7966 1.88739L33.5633 4.66776L37.3966 5.22359C37.5466 5.24534 37.67 5.32509 37.7133 5.43264C37.7352 5.48488 37.7371 5.54044 37.7189 5.59342C37.7007 5.6464 37.6631 5.69481 37.61 5.73351L34.725 7.82393C34.4318 8.0363 34.0344 8.15578 33.62 8.15622Z" fill="#1C73E5"/>
<path d="M4.375 14.5C4.375 17.5044 6.0212 20.3858 8.95146 22.5102C11.8817 24.6346 15.856 25.8281 20 25.8281C22.0519 25.8281 24.0837 25.5351 25.9794 24.9658C27.8751 24.3965 29.5976 23.5621 31.0485 22.5102C32.4995 21.4583 33.6504 20.2095 34.4356 18.8351C35.2208 17.4607 35.625 15.9876 35.625 14.5C35.625 13.4149 35.415 12.3661 35.0233 11.374C34.9455 11.1463 34.9925 10.9055 35.1546 10.7023C35.3167 10.4992 35.5811 10.3496 35.8922 10.2849C36.2034 10.2202 36.537 10.2456 36.8229 10.3557C37.1088 10.4657 37.3246 10.6519 37.425 10.875C37.8817 12.0278 38.125 13.2433 38.125 14.5C38.125 21.7573 30.01 27.6406 20 27.6406C9.99 27.6406 1.875 21.7573 1.875 14.5C1.875 7.24276 9.99 1.35938 20 1.35938C21.6917 1.35817 23.3733 1.52855 25 1.86567C25.1586 1.89793 25.3069 1.95259 25.4362 2.02653C25.5656 2.10046 25.6735 2.1922 25.7538 2.29648C25.8341 2.40075 25.8852 2.51551 25.9041 2.63414C25.923 2.75278 25.9094 2.87296 25.8641 2.98777C25.8187 3.10258 25.7425 3.20976 25.6398 3.30314C25.5372 3.39653 25.41 3.47428 25.2658 3.53193C25.1215 3.58957 24.9629 3.62598 24.7992 3.63905C24.6355 3.65212 24.4698 3.6416 24.3117 3.60809C22.9094 3.31792 21.4582 3.1711 20 3.17188C15.856 3.17188 11.8817 4.36538 8.95146 6.48981C6.0212 8.61425 4.375 11.4956 4.375 14.5Z" fill="#1C73E5"/>
<path d="M11.8749 14.5002C11.8795 15.3005 12.1091 16.0918 12.5496 16.8256C12.9901 17.5594 13.6323 18.2205 14.437 18.7684C15.2416 19.3162 16.1919 19.7395 17.2296 20.0122C18.2674 20.285 19.371 20.4015 20.473 20.3548C21.575 20.308 22.6523 20.0988 23.6391 19.7401C24.6259 19.3814 25.5015 18.8807 26.2124 18.2684C26.9234 17.6562 27.4547 16.9453 27.7741 16.1793C28.0935 15.4132 28.1941 14.6079 28.0699 13.8127C28.0349 13.6516 28.0606 13.4867 28.1444 13.3354C28.2282 13.1841 28.3668 13.052 28.5457 12.9532C28.7245 12.8544 28.9369 12.7924 29.1604 12.774C29.3838 12.7556 29.61 12.7813 29.8149 12.8484C30.2332 12.9838 30.5149 13.2726 30.5516 13.6037C30.8103 15.1929 30.3798 16.8011 29.3197 18.2048C28.2596 19.6085 26.6227 20.7378 24.6365 21.4359C22.6503 22.134 20.4134 22.3661 18.2369 22.1C16.0603 21.8339 14.0522 21.0827 12.4916 19.951C10.9314 18.8205 9.89511 17.3661 9.52644 15.7894C9.15777 14.2127 9.47499 12.5919 10.4341 11.1518C11.3932 9.71164 12.9467 8.5236 14.879 7.7524C16.8114 6.9812 19.0269 6.66508 21.2182 6.84786C21.3839 6.859 21.5448 6.89401 21.6916 6.95083C21.8383 7.00765 21.968 7.08513 22.0729 7.17875C22.1778 7.27236 22.2559 7.38021 22.3025 7.49599C22.3492 7.61176 22.3635 7.73312 22.3447 7.85297C22.3258 7.97281 22.2742 8.08871 22.1927 8.19389C22.1113 8.29906 22.0017 8.3914 21.8704 8.46547C21.7391 8.53954 21.5887 8.59386 21.4281 8.62526C21.2674 8.65665 21.0998 8.66447 20.9349 8.64828C19.7966 8.55287 18.6434 8.63306 17.5508 8.88358C16.4583 9.13411 15.4512 9.54931 14.5956 10.1019C13.7401 10.6546 13.0554 11.3321 12.5865 12.0901C12.1176 12.8481 11.8751 13.6695 11.8749 14.5002Z" fill="#1C73E5"/>
</svg>
