<svg width="38" height="40" viewBox="0 0 38 40" fill="none" xmlns="http://www.w3.org/2000/svg">
<path d="M25.3335 18.3335H25.3493M30.0835 7.50014C28.5869 6.66887 26.8419 6.48232 25.2171 6.97988C23.5922 7.47744 22.2146 8.62017 21.3752 10.1668C20.5835 10.0001 19.7918 10.0001 19.0002 10.0001C12.0335 10.0001 6.3335 14.5001 6.3335 20.0001C6.3335 22.5001 7.60016 24.8335 9.50016 26.6668V30.0001C9.50016 30.8842 9.83379 31.732 10.4277 32.3572C11.0215 32.9823 11.827 33.3335 12.6668 33.3335H15.8335V29.6668C17.9305 30.0306 20.0699 30.0306 22.1668 29.6668V31.6668C22.1668 32.6668 22.8002 33.3335 23.7502 33.3335H28.5002V26.6668C29.6085 25.6668 30.4002 24.6668 30.8752 23.3335H33.2502C34.2002 23.3335 34.8335 22.6668 34.8335 21.6668V16.6668H30.8752C30.2418 15.0001 28.9752 13.6668 27.3918 12.5001L30.0835 7.50014Z" stroke="#1C73E5" stroke-width="2" stroke-linecap="round" stroke-linejoin="round"/>
<path d="M3.64178 11.667C3.35353 12.23 3.22522 12.8683 3.27216 13.506C3.3191 14.1436 3.53931 14.7535 3.90651 15.2631C4.27371 15.7726 4.7724 16.1601 5.3431 16.3795C5.91379 16.5989 6.5324 16.6408 7.12511 16.5003" stroke="#1C73E5" stroke-width="2" stroke-linecap="round" stroke-linejoin="round"/>
</svg>
